ISO-10303-21;
HEADER;
FILE_DESCRIPTION((''),'2;1');
FILE_NAME('Battery','2026-08-17T09:32:43',(
'FrameworkComputer'),(''),'CREO PARAMETRIC BY PTC INC, 2022484',
'CREO PARAMETRIC BY PTC INC, 2022484','');
FILE_SCHEMA(('CONFIG_CONTROL_DESIGN'));
ENDSEC;
DATA;
#1=DIRECTION('',(0.E0,0.E0,1.E0));
#2=VECTOR('',#1,1.E1);
#3=CARTESIAN_POINT('',(1.05E1,0.E0,-5.E0));
#4=LINE('',#3,#2);
#5=DIRECTION('',(0.E0,-1.E0,0.E0));
#6=VECTOR('',#5,1.25E-1);
#7=CARTESIAN_POINT('',(1.05E1,0.E0,5.E0));
#8=LINE('',#7,#6);
#9=DIRECTION('',(0.E0,0.E0,-1.E0));
#10=VECTOR('',#9,1.E1);
#11=CARTESIAN_POINT('',(1.05E1,-1.25E-1,5.E0));
#12=LINE('',#11,#10);
#13=DIRECTION('',(0.E0,-1.E0,0.E0));
#14=VECTOR('',#13,4.E-1);
#15=CARTESIAN_POINT('',(2.25E1,2.75E-1,5.E0));
#16=LINE('',#15,#14);
#17=DIRECTION('',(-1.E0,0.E0,0.E0));
#18=VECTOR('',#17,1.2E1);
#19=CARTESIAN_POINT('',(2.25E1,-1.25E-1,5.E0));
#20=LINE('',#19,#18);
#21=DIRECTION('',(-1.E0,0.E0,0.E0));
#22=VECTOR('',#21,2.1E1);
#23=CARTESIAN_POINT('',(1.05E1,0.E0,5.E0));
#24=LINE('',#23,#22);
#25=DIRECTION('',(0.E0,0.E0,1.E0));
#26=VECTOR('',#25,1.E1);
#27=CARTESIAN_POINT('',(1.05E1,1.5E-1,-5.E0));
#28=LINE('',#27,#26);
#29=DIRECTION('',(-1.E0,0.E0,0.E0));
#30=VECTOR('',#29,2.1E1);
#31=CARTESIAN_POINT('',(1.05E1,1.5E-1,5.E0));
#32=LINE('',#31,#30);
#33=DIRECTION('',(0.E0,0.E0,-1.E0));
#34=VECTOR('',#33,1.E1);
#35=CARTESIAN_POINT('',(-1.05E1,1.5E-1,5.E0));
#36=LINE('',#35,#34);
#37=DIRECTION('',(1.E0,0.E0,0.E0));
#38=VECTOR('',#37,2.1E1);
#39=CARTESIAN_POINT('',(-1.05E1,1.5E-1,-5.E0));
#40=LINE('',#39,#38);
#41=DIRECTION('',(0.E0,-1.E0,0.E0));
#42=VECTOR('',#41,1.25E-1);
#43=CARTESIAN_POINT('',(1.05E1,2.75E-1,5.E0));
#44=LINE('',#43,#42);
#45=DIRECTION('',(1.E0,0.E0,0.E0));
#46=VECTOR('',#45,2.1E1);
#47=CARTESIAN_POINT('',(-1.05E1,0.E0,-5.E0));
#48=LINE('',#47,#46);
#49=DIRECTION('',(0.E0,-1.E0,0.E0));
#50=VECTOR('',#49,1.25E-1);
#51=CARTESIAN_POINT('',(1.05E1,0.E0,-5.E0));
#52=LINE('',#51,#50);
#53=DIRECTION('',(1.E0,0.E0,0.E0));
#54=VECTOR('',#53,1.2E1);
#55=CARTESIAN_POINT('',(1.05E1,-1.25E-1,-5.E0));
#56=LINE('',#55,#54);
#57=DIRECTION('',(0.E0,-1.E0,0.E0));
#58=VECTOR('',#57,1.25E-1);
#59=CARTESIAN_POINT('',(1.05E1,2.75E-1,-5.E0));
#60=LINE('',#59,#58);
#61=DIRECTION('',(0.E0,-1.E0,0.E0));
#62=VECTOR('',#61,1.5E-1);
#63=CARTESIAN_POINT('',(-1.05E1,1.5E-1,-5.E0));
#64=LINE('',#63,#62);
#65=DIRECTION('',(0.E0,0.E0,1.E0));
#66=VECTOR('',#65,1.E1);
#67=CARTESIAN_POINT('',(2.25E1,-1.25E-1,-5.E0));
#68=LINE('',#67,#66);
#69=DIRECTION('',(0.E0,-1.E0,0.E0));
#70=VECTOR('',#69,4.E-1);
#71=CARTESIAN_POINT('',(2.25E1,2.75E-1,-5.E0));
#72=LINE('',#71,#70);
#73=DIRECTION('',(0.E0,0.E0,-1.E0));
#74=VECTOR('',#73,1.E1);
#75=CARTESIAN_POINT('',(1.05E1,2.75E-1,5.E0));
#76=LINE('',#75,#74);
#77=DIRECTION('',(1.E0,0.E0,0.E0));
#78=VECTOR('',#77,1.2E1);
#79=CARTESIAN_POINT('',(1.05E1,2.75E-1,-5.E0));
#80=LINE('',#79,#78);
#81=DIRECTION('',(0.E0,0.E0,1.E0));
#82=VECTOR('',#81,1.E1);
#83=CARTESIAN_POINT('',(2.25E1,2.75E-1,-5.E0));
#84=LINE('',#83,#82);
#85=DIRECTION('',(-1.E0,0.E0,0.E0));
#86=VECTOR('',#85,1.2E1);
#87=CARTESIAN_POINT('',(2.25E1,2.75E-1,5.E0));
#88=LINE('',#87,#86);
#89=DIRECTION('',(0.E0,0.E0,-1.E0));
#90=VECTOR('',#89,1.E1);
#91=CARTESIAN_POINT('',(-1.05E1,0.E0,5.E0));
#92=LINE('',#91,#90);
#93=DIRECTION('',(0.E0,-1.E0,0.E0));
#94=VECTOR('',#93,1.5E-1);
#95=CARTESIAN_POINT('',(-1.05E1,1.5E-1,5.E0));
#96=LINE('',#95,#94);
#97=CARTESIAN_POINT('',(1.05E1,0.E0,-5.E0));
#98=CARTESIAN_POINT('',(1.05E1,0.E0,5.E0));
#99=VERTEX_POINT('',#97);
#100=VERTEX_POINT('',#98);
#101=CARTESIAN_POINT('',(-1.05E1,0.E0,-5.E0));
#102=VERTEX_POINT('',#101);
#103=CARTESIAN_POINT('',(-1.05E1,0.E0,5.E0));
#104=VERTEX_POINT('',#103);
#105=CARTESIAN_POINT('',(1.05E1,-1.25E-1,5.E0));
#106=VERTEX_POINT('',#105);
#107=CARTESIAN_POINT('',(1.05E1,-1.25E-1,-5.E0));
#108=VERTEX_POINT('',#107);
#109=CARTESIAN_POINT('',(1.05E1,1.5E-1,-5.E0));
#110=CARTESIAN_POINT('',(1.05E1,1.5E-1,5.E0));
#111=VERTEX_POINT('',#109);
#112=VERTEX_POINT('',#110);
#113=CARTESIAN_POINT('',(1.05E1,2.75E-1,-5.E0));
#114=VERTEX_POINT('',#113);
#115=CARTESIAN_POINT('',(1.05E1,2.75E-1,5.E0));
#116=VERTEX_POINT('',#115);
#117=CARTESIAN_POINT('',(-1.05E1,1.5E-1,5.E0));
#118=VERTEX_POINT('',#117);
#119=CARTESIAN_POINT('',(2.25E1,2.75E-1,5.E0));
#120=VERTEX_POINT('',#119);
#121=CARTESIAN_POINT('',(2.25E1,-1.25E-1,5.E0));
#122=VERTEX_POINT('',#121);
#123=CARTESIAN_POINT('',(-1.05E1,1.5E-1,-5.E0));
#124=VERTEX_POINT('',#123);
#125=CARTESIAN_POINT('',(2.25E1,-1.25E-1,-5.E0));
#126=VERTEX_POINT('',#125);
#127=CARTESIAN_POINT('',(2.25E1,2.75E-1,-5.E0));
#128=VERTEX_POINT('',#127);
#129=CARTESIAN_POINT('',(0.E0,0.E0,0.E0));
#130=DIRECTION('',(0.E0,1.E0,0.E0));
#131=DIRECTION('',(1.E0,0.E0,0.E0));
#132=AXIS2_PLACEMENT_3D('',#129,#130,#131);
#133=PLANE('',#132);
#135=ORIENTED_EDGE('',*,*,#134,.F.);
#137=ORIENTED_EDGE('',*,*,#136,.F.);
#139=ORIENTED_EDGE('',*,*,#138,.F.);
#141=ORIENTED_EDGE('',*,*,#140,.F.);
#142=EDGE_LOOP('',(#135,#137,#139,#141));
#143=FACE_OUTER_BOUND('',#142,.F.);
#144=ADVANCED_FACE('',(#143),#133,.F.);
#145=CARTESIAN_POINT('',(1.05E1,-1.25E-1,-5.E0));
#146=DIRECTION('',(-1.E0,0.E0,0.E0));
#147=DIRECTION('',(0.E0,0.E0,1.E0));
#148=AXIS2_PLACEMENT_3D('',#145,#146,#147);
#149=PLANE('',#148);
#150=ORIENTED_EDGE('',*,*,#134,.T.);
#152=ORIENTED_EDGE('',*,*,#151,.T.);
#154=ORIENTED_EDGE('',*,*,#153,.T.);
#156=ORIENTED_EDGE('',*,*,#155,.F.);
#157=EDGE_LOOP('',(#150,#152,#154,#156));
#158=FACE_OUTER_BOUND('',#157,.F.);
#159=ADVANCED_FACE('',(#158),#149,.T.);
#160=CARTESIAN_POINT('',(-1.05E1,0.E0,5.E0));
#161=DIRECTION('',(0.E0,0.E0,1.E0));
#162=DIRECTION('',(1.E0,0.E0,0.E0));
#163=AXIS2_PLACEMENT_3D('',#160,#161,#162);
#164=PLANE('',#163);
#166=ORIENTED_EDGE('',*,*,#165,.F.);
#168=ORIENTED_EDGE('',*,*,#167,.F.);
#170=ORIENTED_EDGE('',*,*,#169,.F.);
#172=ORIENTED_EDGE('',*,*,#171,.T.);
#174=ORIENTED_EDGE('',*,*,#173,.T.);
#175=ORIENTED_EDGE('',*,*,#151,.F.);
#176=ORIENTED_EDGE('',*,*,#140,.T.);
#178=ORIENTED_EDGE('',*,*,#177,.F.);
#179=EDGE_LOOP('',(#166,#168,#170,#172,#174,#175,#176,#178));
#180=FACE_OUTER_BOUND('',#179,.F.);
#181=ADVANCED_FACE('',(#180),#164,.T.);
#182=CARTESIAN_POINT('',(0.E0,1.5E-1,0.E0));
#183=DIRECTION('',(0.E0,1.E0,0.E0));
#184=DIRECTION('',(1.E0,0.E0,0.E0));
#185=AXIS2_PLACEMENT_3D('',#182,#183,#184);
#186=PLANE('',#185);
#188=ORIENTED_EDGE('',*,*,#187,.T.);
#189=ORIENTED_EDGE('',*,*,#165,.T.);
#191=ORIENTED_EDGE('',*,*,#190,.T.);
#193=ORIENTED_EDGE('',*,*,#192,.T.);
#194=EDGE_LOOP('',(#188,#189,#191,#193));
#195=FACE_OUTER_BOUND('',#194,.F.);
#196=ADVANCED_FACE('',(#195),#186,.T.);
#197=CARTESIAN_POINT('',(1.05E1,-1.25E-1,-5.E0));
#198=DIRECTION('',(-1.E0,0.E0,0.E0));
#199=DIRECTION('',(0.E0,0.E0,1.E0));
#200=AXIS2_PLACEMENT_3D('',#197,#198,#199);
#201=PLANE('',#200);
#202=ORIENTED_EDGE('',*,*,#187,.F.);
#204=ORIENTED_EDGE('',*,*,#203,.F.);
#206=ORIENTED_EDGE('',*,*,#205,.F.);
#207=ORIENTED_EDGE('',*,*,#167,.T.);
#208=EDGE_LOOP('',(#202,#204,#206,#207));
#209=FACE_OUTER_BOUND('',#208,.F.);
#210=ADVANCED_FACE('',(#209),#201,.T.);
#211=CARTESIAN_POINT('',(1.05E1,0.E0,-5.E0));
#212=DIRECTION('',(0.E0,0.E0,-1.E0));
#213=DIRECTION('',(-1.E0,0.E0,0.E0));
#214=AXIS2_PLACEMENT_3D('',#211,#212,#213);
#215=PLANE('',#214);
#216=ORIENTED_EDGE('',*,*,#136,.T.);
#217=ORIENTED_EDGE('',*,*,#155,.T.);
#219=ORIENTED_EDGE('',*,*,#218,.T.);
#221=ORIENTED_EDGE('',*,*,#220,.F.);
#223=ORIENTED_EDGE('',*,*,#222,.F.);
#224=ORIENTED_EDGE('',*,*,#203,.T.);
#225=ORIENTED_EDGE('',*,*,#192,.F.);
#227=ORIENTED_EDGE('',*,*,#226,.T.);
#228=EDGE_LOOP('',(#216,#217,#219,#221,#223,#224,#225,#227));
#229=FACE_OUTER_BOUND('',#228,.F.);
#230=ADVANCED_FACE('',(#229),#215,.T.);
#231=CARTESIAN_POINT('',(0.E0,-1.25E-1,0.E0));
#232=DIRECTION('',(0.E0,1.E0,0.E0));
#233=DIRECTION('',(1.E0,0.E0,0.E0));
#234=AXIS2_PLACEMENT_3D('',#231,#232,#233);
#235=PLANE('',#234);
#236=ORIENTED_EDGE('',*,*,#153,.F.);
#237=ORIENTED_EDGE('',*,*,#173,.F.);
#239=ORIENTED_EDGE('',*,*,#238,.F.);
#240=ORIENTED_EDGE('',*,*,#218,.F.);
#241=EDGE_LOOP('',(#236,#237,#239,#240));
#242=FACE_OUTER_BOUND('',#241,.F.);
#243=ADVANCED_FACE('',(#242),#235,.F.);
#244=CARTESIAN_POINT('',(2.25E1,-1.25E-1,5.E0));
#245=DIRECTION('',(1.E0,0.E0,0.E0));
#246=DIRECTION('',(0.E0,0.E0,-1.E0));
#247=AXIS2_PLACEMENT_3D('',#244,#245,#246);
#248=PLANE('',#247);
#249=ORIENTED_EDGE('',*,*,#238,.T.);
#250=ORIENTED_EDGE('',*,*,#171,.F.);
#252=ORIENTED_EDGE('',*,*,#251,.F.);
#253=ORIENTED_EDGE('',*,*,#220,.T.);
#254=EDGE_LOOP('',(#249,#250,#252,#253));
#255=FACE_OUTER_BOUND('',#254,.F.);
#256=ADVANCED_FACE('',(#255),#248,.T.);
#257=CARTESIAN_POINT('',(0.E0,2.75E-1,0.E0));
#258=DIRECTION('',(0.E0,1.E0,0.E0));
#259=DIRECTION('',(1.E0,0.E0,0.E0));
#260=AXIS2_PLACEMENT_3D('',#257,#258,#259);
#261=PLANE('',#260);
#262=ORIENTED_EDGE('',*,*,#205,.T.);
#263=ORIENTED_EDGE('',*,*,#222,.T.);
#264=ORIENTED_EDGE('',*,*,#251,.T.);
#265=ORIENTED_EDGE('',*,*,#169,.T.);
#266=EDGE_LOOP('',(#262,#263,#264,#265));
#267=FACE_OUTER_BOUND('',#266,.F.);
#268=ADVANCED_FACE('',(#267),#261,.T.);
#269=CARTESIAN_POINT('',(-1.05E1,0.E0,-5.E0));
#270=DIRECTION('',(-1.E0,0.E0,0.E0));
#271=DIRECTION('',(0.E0,0.E0,1.E0));
#272=AXIS2_PLACEMENT_3D('',#269,#270,#271);
#273=PLANE('',#272);
#274=ORIENTED_EDGE('',*,*,#138,.T.);
#275=ORIENTED_EDGE('',*,*,#226,.F.);
#276=ORIENTED_EDGE('',*,*,#190,.F.);
#277=ORIENTED_EDGE('',*,*,#177,.T.);
#278=EDGE_LOOP('',(#274,#275,#276,#277));
#279=FACE_OUTER_BOUND('',#278,.F.);
#280=ADVANCED_FACE('',(#279),#273,.T.);
#284=DIMENSIONAL_EXPONENTS(0.E0,0.E0,0.E0,0.E0,0.E0,0.E0,0.E0);
#286=PLANE_ANGLE_MEASURE_WITH_UNIT(PLANE_ANGLE_MEASURE(1.745329251994E-2),#285);
#287=(CONVERSION_BASED_UNIT('DEGREE',#286)NAMED_UNIT(*)PLANE_ANGLE_UNIT());
#289=UNCERTAINTY_MEASURE_WITH_UNIT(LENGTH_MEASURE(3.448281991228E-3),#283,
'closure',
'Maximum model space distance between geometric entities at asserted connectivities');
#290=(GEOMETRIC_REPRESENTATION_CONTEXT(3)GLOBAL_UNCERTAINTY_ASSIGNED_CONTEXT((
#289))GLOBAL_UNIT_ASSIGNED_CONTEXT((#283,#287,#288))REPRESENTATION_CONTEXT
('ID1','3'));
#291=CARTESIAN_POINT('',(0.E0,0.E0,0.E0));
#292=DIRECTION('',(0.E0,0.E0,1.E0));
#293=DIRECTION('',(1.E0,0.E0,0.E0));
#296=APPLICATION_CONTEXT(
'CONFIGURATION CONTROLLED 3D DESIGNS OF MECHANICAL PARTS AND ASSEMBLIES');
#297=APPLICATION_PROTOCOL_DEFINITION('international standard',
'config_control_design',1994,#296);
#298=DESIGN_CONTEXT('',#296,'design');
#299=MECHANICAL_CONTEXT('',#296,'mechanical');
#300=PRODUCT('DAISY_KB_BATTERY_ADHESIVE_10','DAISY_KB_BATTERY_ADHESIVE_10',
'NOT SPECIFIED',(#299));
#301=PRODUCT_DEFINITION_FORMATION_WITH_SPECIFIED_SOURCE('1','LAST_VERSION',#300,
.MADE.);
#310=CARTESIAN_POINT('',(3.267E1,-8.9E0,-3.8415E1));
#311=DIRECTION('',(0.E0,0.E0,-1.E0));
#312=DIRECTION('',(-1.E0,0.E0,0.E0));
#313=AXIS2_PLACEMENT_3D('',#310,#311,#312);
#314=ITEM_DEFINED_TRANSFORMATION('','',#294,#313);
#315=(REPRESENTATION_RELATIONSHIP('','',#295,#307)REPRESENTATION_RELATIONSHIP_WITH_TRANSFORMATION(#314)SHAPE_REPRESENTATION_RELATIONSHIP());
#316=CONTEXT_DEPENDENT_SHAPE_REPRESENTATION(#315,#309);
#317=DIRECTION('',(-1.E0,0.E0,0.E0));
#318=VECTOR('',#317,7.84E1);
#319=CARTESIAN_POINT('',(3.92E1,1.5E0,-1.06E1));
#320=LINE('',#319,#318);
#321=DIRECTION('',(1.E0,0.E0,0.E0));
#322=VECTOR('',#321,7.84E1);
#323=CARTESIAN_POINT('',(-3.92E1,0.E0,-9.1E0));
#324=LINE('',#323,#322);
#325=CARTESIAN_POINT('',(3.92E1,5.E0,-9.1E0));
#326=DIRECTION('',(-1.E0,0.E0,0.E0));
#327=DIRECTION('',(0.E0,1.E0,0.E0));
#328=AXIS2_PLACEMENT_3D('',#325,#326,#327);
#330=DIRECTION('',(0.E0,-1.E0,0.E0));
#331=VECTOR('',#330,3.5E0);
#332=CARTESIAN_POINT('',(3.92E1,5.E0,-1.06E1));
#333=LINE('',#332,#331);
#334=CARTESIAN_POINT('',(3.92E1,1.5E0,-9.1E0));
#335=DIRECTION('',(-1.E0,0.E0,0.E0));
#336=DIRECTION('',(0.E0,0.E0,-1.E0));
#337=AXIS2_PLACEMENT_3D('',#334,#335,#336);
#339=DIRECTION('',(0.E0,0.E0,1.E0));
#340=VECTOR('',#339,1.82E1);
#341=CARTESIAN_POINT('',(3.92E1,0.E0,-9.1E0));
#342=LINE('',#341,#340);
#343=CARTESIAN_POINT('',(3.92E1,1.5E0,9.1E0));
#344=DIRECTION('',(-1.E0,0.E0,0.E0));
#345=DIRECTION('',(0.E0,-1.E0,0.E0));
#346=AXIS2_PLACEMENT_3D('',#343,#344,#345);
#348=CARTESIAN_POINT('',(3.92E1,5.E0,9.1E0));
#349=DIRECTION('',(-1.E0,0.E0,0.E0));
#350=DIRECTION('',(0.E0,0.E0,1.E0));
#351=AXIS2_PLACEMENT_3D('',#348,#349,#350);
#353=DIRECTION('',(1.E0,0.E0,0.E0));
#354=VECTOR('',#353,7.84E1);
#355=CARTESIAN_POINT('',(-3.92E1,5.E0,-1.06E1));
#356=LINE('',#355,#354);
#357=DIRECTION('',(-1.E0,0.E0,0.E0));
#358=VECTOR('',#357,7.84E1);
#359=CARTESIAN_POINT('',(3.92E1,6.5E0,-9.1E0));
#360=LINE('',#359,#358);
#361=CARTESIAN_POINT('',(-3.92E1,5.E0,-9.1E0));
#362=DIRECTION('',(1.E0,0.E0,0.E0));
#363=DIRECTION('',(0.E0,0.E0,-1.E0));
#364=AXIS2_PLACEMENT_3D('',#361,#362,#363);
#366=CARTESIAN_POINT('',(-3.92E1,5.E0,9.1E0));
#367=DIRECTION('',(1.E0,0.E0,0.E0));
#368=DIRECTION('',(0.E0,1.E0,0.E0));
#369=AXIS2_PLACEMENT_3D('',#366,#367,#368);
#371=DIRECTION('',(0.E0,-1.E0,0.E0));
#372=VECTOR('',#371,3.5E0);
#373=CARTESIAN_POINT('',(-3.92E1,5.E0,1.06E1));
#374=LINE('',#373,#372);
#375=CARTESIAN_POINT('',(-3.92E1,1.5E0,9.1E0));
#376=DIRECTION('',(1.E0,0.E0,0.E0));
#377=DIRECTION('',(0.E0,0.E0,1.E0));
#378=AXIS2_PLACEMENT_3D('',#375,#376,#377);
#380=DIRECTION('',(0.E0,0.E0,-1.E0));
#381=VECTOR('',#380,1.82E1);
#382=CARTESIAN_POINT('',(-3.92E1,0.E0,9.1E0));
#383=LINE('',#382,#381);
#384=CARTESIAN_POINT('',(-3.92E1,1.5E0,-9.1E0));
#385=DIRECTION('',(1.E0,0.E0,0.E0));
#386=DIRECTION('',(0.E0,-1.E0,0.E0));
#387=AXIS2_PLACEMENT_3D('',#384,#385,#386);
#389=DIRECTION('',(0.E0,0.E0,1.E0));
#390=VECTOR('',#389,1.82E1);
#391=CARTESIAN_POINT('',(3.92E1,6.5E0,-9.1E0));
#392=LINE('',#391,#390);
#393=DIRECTION('',(0.E0,0.E0,-1.E0));
#394=VECTOR('',#393,1.82E1);
#395=CARTESIAN_POINT('',(-3.92E1,6.5E0,9.1E0));
#396=LINE('',#395,#394);
#397=DIRECTION('',(-1.E0,0.E0,0.E0));
#398=VECTOR('',#397,7.84E1);
#399=CARTESIAN_POINT('',(3.92E1,5.E0,1.06E1));
#400=LINE('',#399,#398);
#401=DIRECTION('',(1.E0,0.E0,0.E0));
#402=VECTOR('',#401,7.84E1);
#403=CARTESIAN_POINT('',(-3.92E1,6.5E0,9.1E0));
#404=LINE('',#403,#402);
#405=DIRECTION('',(0.E0,-1.E0,0.E0));
#406=VECTOR('',#405,3.5E0);
#407=CARTESIAN_POINT('',(3.92E1,5.E0,1.06E1));
#408=LINE('',#407,#406);
#409=DIRECTION('',(1.E0,0.E0,0.E0));
#410=VECTOR('',#409,7.84E1);
#411=CARTESIAN_POINT('',(-3.92E1,1.5E0,1.06E1));
#412=LINE('',#411,#410);
#413=DIRECTION('',(-1.E0,0.E0,0.E0));
#414=VECTOR('',#413,7.84E1);
#415=CARTESIAN_POINT('',(3.92E1,0.E0,9.1E0));
#416=LINE('',#415,#414);
#417=DIRECTION('',(0.E0,-1.E0,0.E0));
#418=VECTOR('',#417,3.5E0);
#419=CARTESIAN_POINT('',(-3.92E1,5.E0,-1.06E1));
#420=LINE('',#419,#418);
#421=CARTESIAN_POINT('',(-3.92E1,0.E0,-9.1E0));
#422=CARTESIAN_POINT('',(3.92E1,0.E0,-9.1E0));
#423=VERTEX_POINT('',#421);
#424=VERTEX_POINT('',#422);
#425=CARTESIAN_POINT('',(-3.92E1,0.E0,9.1E0));
#426=VERTEX_POINT('',#425);
#427=CARTESIAN_POINT('',(3.92E1,0.E0,9.1E0));
#428=VERTEX_POINT('',#427);
#429=CARTESIAN_POINT('',(3.92E1,1.5E0,-1.06E1));
#430=VERTEX_POINT('',#429);
#431=CARTESIAN_POINT('',(-3.92E1,1.5E0,-1.06E1));
#432=VERTEX_POINT('',#431);
#433=CARTESIAN_POINT('',(3.92E1,6.5E0,-9.1E0));
#434=CARTESIAN_POINT('',(3.92E1,5.E0,-1.06E1));
#435=VERTEX_POINT('',#433);
#436=VERTEX_POINT('',#434);
#437=CARTESIAN_POINT('',(3.92E1,1.5E0,1.06E1));
#438=VERTEX_POINT('',#437);
#439=CARTESIAN_POINT('',(3.92E1,5.E0,1.06E1));
#440=VERTEX_POINT('',#439);
#441=CARTESIAN_POINT('',(3.92E1,6.5E0,9.1E0));
#442=VERTEX_POINT('',#441);
#443=CARTESIAN_POINT('',(-3.92E1,5.E0,-1.06E1));
#444=CARTESIAN_POINT('',(-3.92E1,6.5E0,-9.1E0));
#445=VERTEX_POINT('',#443);
#446=VERTEX_POINT('',#444);
#447=CARTESIAN_POINT('',(-3.92E1,6.5E0,9.1E0));
#448=VERTEX_POINT('',#447);
#449=CARTESIAN_POINT('',(-3.92E1,5.E0,1.06E1));
#450=VERTEX_POINT('',#449);
#451=CARTESIAN_POINT('',(-3.92E1,1.5E0,1.06E1));
#452=VERTEX_POINT('',#451);
#453=CARTESIAN_POINT('',(0.E0,0.E0,0.E0));
#454=DIRECTION('',(0.E0,1.E0,0.E0));
#455=DIRECTION('',(1.E0,0.E0,0.E0));
#456=AXIS2_PLACEMENT_3D('',#453,#454,#455);
#457=PLANE('',#456);
#459=ORIENTED_EDGE('',*,*,#458,.F.);
#461=ORIENTED_EDGE('',*,*,#460,.F.);
#463=ORIENTED_EDGE('',*,*,#462,.F.);
#465=ORIENTED_EDGE('',*,*,#464,.F.);
#466=EDGE_LOOP('',(#459,#461,#463,#465));
#467=FACE_OUTER_BOUND('',#466,.F.);
#468=ADVANCED_FACE('',(#467),#457,.F.);
#469=CARTESIAN_POINT('',(-1.4140224E2,1.5E0,-9.1E0));
#470=DIRECTION('',(1.E0,0.E0,0.E0));
#471=DIRECTION('',(0.E0,-1.E0,0.E0));
#472=AXIS2_PLACEMENT_3D('',#469,#470,#471);
#473=CYLINDRICAL_SURFACE('',#472,1.5E0);
#475=ORIENTED_EDGE('',*,*,#474,.F.);
#477=ORIENTED_EDGE('',*,*,#476,.T.);
#479=ORIENTED_EDGE('',*,*,#478,.F.);
#480=ORIENTED_EDGE('',*,*,#458,.T.);
#481=EDGE_LOOP('',(#475,#477,#479,#480));
#482=FACE_OUTER_BOUND('',#481,.F.);
#483=ADVANCED_FACE('',(#482),#473,.T.);
#484=CARTESIAN_POINT('',(3.92E1,0.E0,1.06E1));
#485=DIRECTION('',(1.E0,0.E0,0.E0));
#486=DIRECTION('',(0.E0,0.E0,-1.E0));
#487=AXIS2_PLACEMENT_3D('',#484,#485,#486);
#488=PLANE('',#487);
#490=ORIENTED_EDGE('',*,*,#489,.T.);
#492=ORIENTED_EDGE('',*,*,#491,.T.);
#493=ORIENTED_EDGE('',*,*,#474,.T.);
#494=ORIENTED_EDGE('',*,*,#464,.T.);
#496=ORIENTED_EDGE('',*,*,#495,.T.);
#498=ORIENTED_EDGE('',*,*,#497,.F.);
#500=ORIENTED_EDGE('',*,*,#499,.T.);
#502=ORIENTED_EDGE('',*,*,#501,.F.);
#503=EDGE_LOOP('',(#490,#492,#493,#494,#496,#498,#500,#502));
#504=FACE_OUTER_BOUND('',#503,.F.);
#505=ADVANCED_FACE('',(#504),#488,.T.);
#506=CARTESIAN_POINT('',(1.4140224E2,5.E0,-9.1E0));
#507=DIRECTION('',(-1.E0,0.E0,0.E0));
#508=DIRECTION('',(0.E0,1.E0,0.E0));
#509=AXIS2_PLACEMENT_3D('',#506,#507,#508);
#510=CYLINDRICAL_SURFACE('',#509,1.5E0);
#512=ORIENTED_EDGE('',*,*,#511,.F.);
#514=ORIENTED_EDGE('',*,*,#513,.T.);
#515=ORIENTED_EDGE('',*,*,#489,.F.);
#517=ORIENTED_EDGE('',*,*,#516,.T.);
#518=EDGE_LOOP('',(#512,#514,#515,#517));
#519=FACE_OUTER_BOUND('',#518,.F.);
#520=ADVANCED_FACE('',(#519),#510,.T.);
#521=CARTESIAN_POINT('',(-3.92E1,0.E0,-1.06E1));
#522=DIRECTION('',(-1.E0,0.E0,0.E0));
#523=DIRECTION('',(0.E0,0.E0,1.E0));
#524=AXIS2_PLACEMENT_3D('',#521,#522,#523);
#525=PLANE('',#524);
#526=ORIENTED_EDGE('',*,*,#511,.T.);
#528=ORIENTED_EDGE('',*,*,#527,.F.);
#530=ORIENTED_EDGE('',*,*,#529,.T.);
#532=ORIENTED_EDGE('',*,*,#531,.T.);
#534=ORIENTED_EDGE('',*,*,#533,.T.);
#535=ORIENTED_EDGE('',*,*,#460,.T.);
#536=ORIENTED_EDGE('',*,*,#478,.T.);
#538=ORIENTED_EDGE('',*,*,#537,.F.);
#539=EDGE_LOOP('',(#526,#528,#530,#532,#534,#535,#536,#538));
#540=FACE_OUTER_BOUND('',#539,.F.);
#541=ADVANCED_FACE('',(#540),#525,.T.);
#542=CARTESIAN_POINT('',(0.E0,6.5E0,0.E0));
#543=DIRECTION('',(0.E0,1.E0,0.E0));
#544=DIRECTION('',(1.E0,0.E0,0.E0));
#545=AXIS2_PLACEMENT_3D('',#542,#543,#544);
#546=PLANE('',#545);
#547=ORIENTED_EDGE('',*,*,#516,.F.);
#548=ORIENTED_EDGE('',*,*,#501,.T.);
#550=ORIENTED_EDGE('',*,*,#549,.F.);
#551=ORIENTED_EDGE('',*,*,#527,.T.);
#552=EDGE_LOOP('',(#547,#548,#550,#551));
#553=FACE_OUTER_BOUND('',#552,.F.);
#554=ADVANCED_FACE('',(#553),#546,.T.);
#555=CARTESIAN_POINT('',(-1.4140224E2,5.E0,9.1E0));
#556=DIRECTION('',(1.E0,0.E0,0.E0));
#557=DIRECTION('',(0.E0,1.E0,0.E0));
#558=AXIS2_PLACEMENT_3D('',#555,#556,#557);
#559=CYLINDRICAL_SURFACE('',#558,1.5E0);
#560=ORIENTED_EDGE('',*,*,#499,.F.);
#562=ORIENTED_EDGE('',*,*,#561,.T.);
#563=ORIENTED_EDGE('',*,*,#529,.F.);
#564=ORIENTED_EDGE('',*,*,#549,.T.);
#565=EDGE_LOOP('',(#560,#562,#563,#564));
#566=FACE_OUTER_BOUND('',#565,.F.);
#567=ADVANCED_FACE('',(#566),#559,.T.);
#568=CARTESIAN_POINT('',(-3.92E1,0.E0,1.06E1));
#569=DIRECTION('',(0.E0,0.E0,1.E0));
#570=DIRECTION('',(1.E0,0.E0,0.E0));
#571=AXIS2_PLACEMENT_3D('',#568,#569,#570);
#572=PLANE('',#571);
#573=ORIENTED_EDGE('',*,*,#561,.F.);
#574=ORIENTED_EDGE('',*,*,#497,.T.);
#576=ORIENTED_EDGE('',*,*,#575,.F.);
#577=ORIENTED_EDGE('',*,*,#531,.F.);
#578=EDGE_LOOP('',(#573,#574,#576,#577));
#579=FACE_OUTER_BOUND('',#578,.F.);
#580=ADVANCED_FACE('',(#579),#572,.T.);
#581=CARTESIAN_POINT('',(1.4140224E2,1.5E0,9.1E0));
#582=DIRECTION('',(-1.E0,0.E0,0.E0));
#583=DIRECTION('',(0.E0,-1.E0,0.E0));
#584=AXIS2_PLACEMENT_3D('',#581,#582,#583);
#585=CYLINDRICAL_SURFACE('',#584,1.5E0);
#586=ORIENTED_EDGE('',*,*,#533,.F.);
#587=ORIENTED_EDGE('',*,*,#575,.T.);
#588=ORIENTED_EDGE('',*,*,#495,.F.);
#589=ORIENTED_EDGE('',*,*,#462,.T.);
#590=EDGE_LOOP('',(#586,#587,#588,#589));
#591=FACE_OUTER_BOUND('',#590,.F.);
#592=ADVANCED_FACE('',(#591),#585,.T.);
#593=CARTESIAN_POINT('',(3.92E1,0.E0,-1.06E1));
#594=DIRECTION('',(0.E0,0.E0,-1.E0));
#595=DIRECTION('',(-1.E0,0.E0,0.E0));
#596=AXIS2_PLACEMENT_3D('',#593,#594,#595);
#597=PLANE('',#596);
#598=ORIENTED_EDGE('',*,*,#513,.F.);
#599=ORIENTED_EDGE('',*,*,#537,.T.);
#600=ORIENTED_EDGE('',*,*,#476,.F.);
#601=ORIENTED_EDGE('',*,*,#491,.F.);
#602=EDGE_LOOP('',(#598,#599,#600,#601));
#603=FACE_OUTER_BOUND('',#602,.F.);
#604=ADVANCED_FACE('',(#603),#597,.T.);
#608=DIMENSIONAL_EXPONENTS(0.E0,0.E0,0.E0,0.E0,0.E0,0.E0,0.E0);
#610=PLANE_ANGLE_MEASURE_WITH_UNIT(PLANE_ANGLE_MEASURE(1.745329251994E-2),#609);
#611=(CONVERSION_BASED_UNIT('DEGREE',#610)NAMED_UNIT(*)PLANE_ANGLE_UNIT());
#613=UNCERTAINTY_MEASURE_WITH_UNIT(LENGTH_MEASURE(8.147219740882E-3),#607,
'closure',
'Maximum model space distance between geometric entities at asserted connectivities');
#614=(GEOMETRIC_REPRESENTATION_CONTEXT(3)GLOBAL_UNCERTAINTY_ASSIGNED_CONTEXT((
#613))GLOBAL_UNIT_ASSIGNED_CONTEXT((#607,#611,#612))REPRESENTATION_CONTEXT
('ID2','3'));
#615=CARTESIAN_POINT('',(0.E0,0.E0,0.E0));
#616=DIRECTION('',(0.E0,0.E0,1.E0));
#617=DIRECTION('',(1.E0,0.E0,0.E0));
#620=MECHANICAL_CONTEXT('',#296,'mechanical');
#621=PRODUCT('DAISY_KB_BATTERY_MODULE_1','DAISY_KB_BATTERY_MODULE_1',
'NOT SPECIFIED',(#620));
#622=PRODUCT_DEFINITION_FORMATION_WITH_SPECIFIED_SOURCE('1','LAST_VERSION',#621,
.MADE.);
#628=CARTESIAN_POINT('',(6.137E1,-8.75E0,-3.8415E1));
#629=DIRECTION('',(0.E0,0.E0,1.E0));
#630=DIRECTION('',(1.E0,0.E0,0.E0));
#631=AXIS2_PLACEMENT_3D('',#628,#629,#630);
#632=ITEM_DEFINED_TRANSFORMATION('','',#618,#631);
#633=(REPRESENTATION_RELATIONSHIP('','',#619,#307)REPRESENTATION_RELATIONSHIP_WITH_TRANSFORMATION(#632)SHAPE_REPRESENTATION_RELATIONSHIP());
#634=CONTEXT_DEPENDENT_SHAPE_REPRESENTATION(#633,#627);
#636=DIMENSIONAL_EXPONENTS(0.E0,0.E0,0.E0,0.E0,0.E0,0.E0,0.E0);
#638=PLANE_ANGLE_MEASURE_WITH_UNIT(PLANE_ANGLE_MEASURE(1.745329251994E-2),#637);
#639=(CONVERSION_BASED_UNIT('DEGREE',#638)NAMED_UNIT(*)PLANE_ANGLE_UNIT());
#641=UNCERTAINTY_MEASURE_WITH_UNIT(LENGTH_MEASURE(8.659907627683E-2),#635,
'closure',
'Maximum model space distance between geometric entities at asserted connectivities');
#642=(GEOMETRIC_REPRESENTATION_CONTEXT(3)GLOBAL_UNCERTAINTY_ASSIGNED_CONTEXT((
#641))GLOBAL_UNIT_ASSIGNED_CONTEXT((#635,#639,#640))REPRESENTATION_CONTEXT
('ID3','3'));
#643=CARTESIAN_POINT('',(0.E0,0.E0,0.E0));
#644=DIRECTION('',(0.E0,0.E0,1.E0));
#645=DIRECTION('',(1.E0,0.E0,0.E0));
#647=DESIGN_CONTEXT('',#296,'design');
#648=MECHANICAL_CONTEXT('',#296,'mechanical');
#649=PRODUCT('DAISY_KB_V_BOTTOM_COVER_MODULE__ASM',
'DAISY_KB_V_BOTTOM_COVER_MODULE__ASM','NOT SPECIFIED',(#648));
#650=PRODUCT_DEFINITION_FORMATION_WITH_SPECIFIED_SOURCE('1','LAST_VERSION',#649,
.MADE.);
#652=PRODUCT_CATEGORY('part','');
#653=PRODUCT_RELATED_PRODUCT_CATEGORY('assembly','',(#649));
#654=PRODUCT_CATEGORY_RELATIONSHIP('','',#652,#653);
#655=PRODUCT_CATEGORY('part','');
#656=PRODUCT_RELATED_PRODUCT_CATEGORY('detail','',(#300,#621));
#657=PRODUCT_CATEGORY_RELATIONSHIP('','',#655,#656);
#658=SECURITY_CLASSIFICATION_LEVEL('unclassified');
#659=SECURITY_CLASSIFICATION('','',#658);
#660=CC_DESIGN_SECURITY_CLASSIFICATION(#659,(#301,#622,#650,#308,#626));
#661=APPROVAL_STATUS('approved');
#662=APPROVAL(#661,'');
#663=CC_DESIGN_APPROVAL(#662,(#659,#301,#622,#650,#302,#623,#651));
#664=CALENDAR_DATE(126,17,8);
#665=COORDINATED_UNIVERSAL_TIME_OFFSET(8,0,.AHEAD.);
#666=LOCAL_TIME(9,32,4.3E1,#665);
#667=DATE_AND_TIME(#664,#666);
#668=APPROVAL_DATE_TIME(#667,#662);
#669=DATE_TIME_ROLE('creation_date');
#670=CC_DESIGN_DATE_AND_TIME_ASSIGNMENT(#667,#669,(#302,#623,#651));
#671=DATE_TIME_ROLE('classification_date');
#672=CC_DESIGN_DATE_AND_TIME_ASSIGNMENT(#667,#671,(#659));
#673=PERSON('UNSPECIFIED','UNSPECIFIED',$,$,$,$);
#674=ORGANIZATION('UNSPECIFIED','UNSPECIFIED','UNSPECIFIED');
#675=PERSON_AND_ORGANIZATION(#673,#674);
#676=APPROVAL_ROLE('approver');
#677=APPROVAL_PERSON_ORGANIZATION(#675,#662,#676);
#678=PERSON_AND_ORGANIZATION_ROLE('creator');
#679=CC_DESIGN_PERSON_AND_ORGANIZATION_ASSIGNMENT(#675,#678,(#301,#622,#650,
#302,#623,#651));
#680=PERSON_AND_ORGANIZATION_ROLE('design_supplier');
#681=CC_DESIGN_PERSON_AND_ORGANIZATION_ASSIGNMENT(#675,#680,(#301,#622,#650));
#682=PERSON_AND_ORGANIZATION_ROLE('classification_officer');
#683=CC_DESIGN_PERSON_AND_ORGANIZATION_ASSIGNMENT(#675,#682,(#659));
#684=PERSON_AND_ORGANIZATION_ROLE('design_owner');
#685=CC_DESIGN_PERSON_AND_ORGANIZATION_ASSIGNMENT(#675,#684,(#649,#300,#621));
#134=EDGE_CURVE('',#99,#100,#4,.T.);
#136=EDGE_CURVE('',#102,#99,#48,.T.);
#138=EDGE_CURVE('',#104,#102,#92,.T.);
#140=EDGE_CURVE('',#100,#104,#24,.T.);
#151=EDGE_CURVE('',#100,#106,#8,.T.);
#153=EDGE_CURVE('',#106,#108,#12,.T.);
#155=EDGE_CURVE('',#99,#108,#52,.T.);
#165=EDGE_CURVE('',#112,#118,#32,.T.);
#167=EDGE_CURVE('',#116,#112,#44,.T.);
#169=EDGE_CURVE('',#120,#116,#88,.T.);
#171=EDGE_CURVE('',#120,#122,#16,.T.);
#173=EDGE_CURVE('',#122,#106,#20,.T.);
#177=EDGE_CURVE('',#118,#104,#96,.T.);
#187=EDGE_CURVE('',#111,#112,#28,.T.);
#190=EDGE_CURVE('',#118,#124,#36,.T.);
#192=EDGE_CURVE('',#124,#111,#40,.T.);
#203=EDGE_CURVE('',#114,#111,#60,.T.);
#205=EDGE_CURVE('',#116,#114,#76,.T.);
#218=EDGE_CURVE('',#108,#126,#56,.T.);
#220=EDGE_CURVE('',#128,#126,#72,.T.);
#222=EDGE_CURVE('',#114,#128,#80,.T.);
#226=EDGE_CURVE('',#124,#102,#64,.T.);
#238=EDGE_CURVE('',#126,#122,#68,.T.);
#251=EDGE_CURVE('',#128,#120,#84,.T.);
#281=CLOSED_SHELL('',(#144,#159,#181,#196,#210,#230,#243,#256,#268,#280));
#282=MANIFOLD_SOLID_BREP('',#281);
#283=(LENGTH_UNIT()NAMED_UNIT(*)SI_UNIT(.MILLI.,.METRE.));
#285=(NAMED_UNIT(*)PLANE_ANGLE_UNIT()SI_UNIT($,.RADIAN.));
#288=(NAMED_UNIT(*)SI_UNIT($,.STERADIAN.)SOLID_ANGLE_UNIT());
#294=AXIS2_PLACEMENT_3D('',#291,#292,#293);
#295=ADVANCED_BREP_SHAPE_REPRESENTATION('',(#294,#282),#290);
#302=PRODUCT_DEFINITION('design','',#301,#298);
#303=PRODUCT_DEFINITION_SHAPE('','SHAPE FOR DAISY_KB_BATTERY_ADHESIVE_10.',
#302);
#304=SHAPE_DEFINITION_REPRESENTATION(#303,#295);
#305=SHAPE_DEFINITION_REPRESENTATION(#306,#307);
#306=PRODUCT_DEFINITION_SHAPE('',
'SHAPE FOR DAISY_KB_V_BOTTOM_COVER_MODULE__ASM.',#651);
#307=SHAPE_REPRESENTATION('',(#313,#631,#646),#642);
#308=NEXT_ASSEMBLY_USAGE_OCCURRENCE('70','Next assembly relationship',
'DAISY_KB_BATTERY_ADHESIVE',#651,#302,$);
#309=PRODUCT_DEFINITION_SHAPE('Placement #70',
'Placement of DAISY_KB_BATTERY_ADHESIVE_10 with respect to DAISY_KB_V_BOTTOM_COVER_MODULE__ASM',#308);
#329=CIRCLE('',#328,1.5E0);
#338=CIRCLE('',#337,1.5E0);
#347=CIRCLE('',#346,1.5E0);
#352=CIRCLE('',#351,1.5E0);
#365=CIRCLE('',#364,1.5E0);
#370=CIRCLE('',#369,1.5E0);
#379=CIRCLE('',#378,1.5E0);
#388=CIRCLE('',#387,1.5E0);
#458=EDGE_CURVE('',#423,#424,#324,.T.);
#460=EDGE_CURVE('',#426,#423,#383,.T.);
#462=EDGE_CURVE('',#428,#426,#416,.T.);
#464=EDGE_CURVE('',#424,#428,#342,.T.);
#474=EDGE_CURVE('',#430,#424,#338,.T.);
#476=EDGE_CURVE('',#430,#432,#320,.T.);
#478=EDGE_CURVE('',#423,#432,#388,.T.);
#489=EDGE_CURVE('',#435,#436,#329,.T.);
#491=EDGE_CURVE('',#436,#430,#333,.T.);
#495=EDGE_CURVE('',#428,#438,#347,.T.);
#497=EDGE_CURVE('',#440,#438,#408,.T.);
#499=EDGE_CURVE('',#440,#442,#352,.T.);
#501=EDGE_CURVE('',#435,#442,#392,.T.);
#511=EDGE_CURVE('',#445,#446,#365,.T.);
#513=EDGE_CURVE('',#445,#436,#356,.T.);
#516=EDGE_CURVE('',#435,#446,#360,.T.);
#527=EDGE_CURVE('',#448,#446,#396,.T.);
#529=EDGE_CURVE('',#448,#450,#370,.T.);
#531=EDGE_CURVE('',#450,#452,#374,.T.);
#533=EDGE_CURVE('',#452,#426,#379,.T.);
#537=EDGE_CURVE('',#445,#432,#420,.T.);
#549=EDGE_CURVE('',#448,#442,#404,.T.);
#561=EDGE_CURVE('',#440,#450,#400,.T.);
#575=EDGE_CURVE('',#452,#438,#412,.T.);
#605=CLOSED_SHELL('',(#468,#483,#505,#520,#541,#554,#567,#580,#592,#604));
#606=MANIFOLD_SOLID_BREP('',#605);
#607=(LENGTH_UNIT()NAMED_UNIT(*)SI_UNIT(.MILLI.,.METRE.));
#609=(NAMED_UNIT(*)PLANE_ANGLE_UNIT()SI_UNIT($,.RADIAN.));
#612=(NAMED_UNIT(*)SI_UNIT($,.STERADIAN.)SOLID_ANGLE_UNIT());
#618=AXIS2_PLACEMENT_3D('',#615,#616,#617);
#619=ADVANCED_BREP_SHAPE_REPRESENTATION('',(#618,#606),#614);
#623=PRODUCT_DEFINITION('design','',#622,#298);
#624=PRODUCT_DEFINITION_SHAPE('','SHAPE FOR DAISY_KB_BATTERY_MODULE_1.',#623);
#625=SHAPE_DEFINITION_REPRESENTATION(#624,#619);
#626=NEXT_ASSEMBLY_USAGE_OCCURRENCE('71','Next assembly relationship',
'DAISY_KB_BATTERY_MODULE',#651,#623,$);
#627=PRODUCT_DEFINITION_SHAPE('Placement #71',
'Placement of DAISY_KB_BATTERY_MODULE_1 with respect to DAISY_KB_V_BOTTOM_COVER_MODULE__ASM',#626);
#635=(LENGTH_UNIT()NAMED_UNIT(*)SI_UNIT(.MILLI.,.METRE.));
#637=(NAMED_UNIT(*)PLANE_ANGLE_UNIT()SI_UNIT($,.RADIAN.));
#640=(NAMED_UNIT(*)SI_UNIT($,.STERADIAN.)SOLID_ANGLE_UNIT());
#646=AXIS2_PLACEMENT_3D('',#643,#644,#645);
#651=PRODUCT_DEFINITION('design','',#650,#647);
ENDSEC;
END-ISO-10303-21;
